# xmcd
#
# Track frame offsets:
#	150
#	17088
#	34940
#	49384
#	66407
#	82696
#	98655
#	117703
#	135393
#	151724
#	167326
#	179005
#	193457
#	210987
#
# Disc length: 3074 seconds
#
# Revision: 1
# Processed by: cddbd v1.5.2PL0 Copyright (c) Steve Scherf et al.
# Submitted via: audiograbber 1.83.01
#
DISCID=bb0c000e
DTITLE=Various Artist - SD4202
DYEAR=1900
DGENRE=Karaoke
TTITLE0=Lopez, Jennifer - Ain't It Funny
TTITLE1=Aerosmith - Just Push Play
TTITLE2=Shakira - Whenever Wherever
TTITLE3=David, Craig - 7 Days
TTITLE4=Branch, Michelle - All You Wanted
TTITLE5=Fuel - Last Time
TTITLE6=Kelly, R. - World's Greatest, The
TTITLE7=Nickelback - Too Bad
TTITLE8=No Doubt - Hey Baby
TTITLE9=POD - Alive
TTITLE10=McCartney, Paul - Freedom
TTITLE11=Adams, Ryan - New York New York
TTITLE12=Cherry, Eagle-Eye - Feels So Right
TTITLE13=Evan and Jaron - The Distance
EXTD=
EXTT0=
EXTT1=
EXTT2=
EXTT3=
EXTT4=
EXTT5=
EXTT6=
EXTT7=
EXTT8=
EXTT9=
EXTT10=
EXTT11=
EXTT12=
EXTT13=
PLAYORDER=
